<?xml version="1.0" encoding="UTF-8" standalone="no"?>
<svg
   id="Layer_1"
   data-name="Layer 1"
   viewBox="0 0 108.69 57.77"
   version="1.1"
   sodipodi:docname="EHRI_no tagline_rev.svg"
   width="108.69"
   height="57.77"
   inkscape:export-filename="../../../../../../dev/play/ehri-frontend/modules/portal/public/img/ehri-logo.svg"
   inkscape:export-xdpi="93.624069"
   inkscape:export-ydpi="93.624069"
   xmlns:inkscape="http://www.inkscape.org/namespaces/inkscape"
   xmlns:sodipodi="http://sodipodi.sourceforge.net/DTD/sodipodi-0.dtd"
   xmlns="http://www.w3.org/2000/svg"
   xmlns:svg="http://www.w3.org/2000/svg">
  <sodipodi:namedview
     id="namedview10378"
     pagecolor="#ffffff"
     bordercolor="#000000"
     borderopacity="0.25"
     inkscape:showpageshadow="2"
     inkscape:pageopacity="0.0"
     inkscape:pagecheckerboard="true"
     inkscape:deskcolor="#d1d1d1"
     showgrid="false" />
  <defs
     id="defs10355">
    <style
       id="style10353">
      .cls-1 {
        fill: #fff;
      }

      .cls-2 {
        opacity: .4;
      }
    </style>
  </defs>
  <path
     class="cls-1"
     d="M 66.86,57.75 H 54.25 c -0.51,0 -0.92,-0.16 -1.23,-0.46 -0.31,-0.31 -0.47,-0.72 -0.47,-1.23 V 36.6 H 40.3 c 0,0 0,19.46 0,19.46 0,0.51 -0.16,0.92 -0.47,1.23 -0.31,0.31 -0.73,0.47 -1.23,0.47 H 25.99 c -0.51,0 -0.92,-0.16 -1.23,-0.46 -0.31,-0.31 -0.47,-0.73 -0.47,-1.23 V 33.03 l 22.13,-6.18 0.13,0.04 22,6.14 v 23.04 c 0,0.51 -0.16,0.92 -0.46,1.23 -0.31,0.31 -0.73,0.47 -1.23,0.47 z M 40.2,35.6 h 12.45 c 0.55,0 0.9,0.35 0.9,0.9 v 19.56 c 0,0.35 0.13,0.48 0.17,0.53 0.12,0.12 0.29,0.17 0.52,0.17 h 12.61 c 0.24,0 0.41,-0.06 0.53,-0.17 0.11,-0.11 0.17,-0.29 0.17,-0.52 V 33.79 l -21.13,-5.9 -21.13,5.9 v 22.28 c 0,0.24 0.06,0.41 0.17,0.53 0.11,0.11 0.29,0.17 0.52,0.17 h 12.61 c 0.24,0 0.41,-0.06 0.53,-0.17 0.11,-0.12 0.17,-0.29 0.17,-0.52 V 36.52 c 0,-0.55 0.35,-0.9 0.9,-0.9 z"
     id="path10357" />
  <g
     id="g10363"
     transform="translate(-46.65,-28.59)">
    <path
       class="cls-1"
       d="m 114.39,29.41 c -0.21,-0.21 -0.51,-0.32 -0.88,-0.32 H 100.9 c -0.37,0 -0.67,0.11 -0.88,0.32 -0.21,0.21 -0.32,0.51 -0.32,0.88 v 20.28 c 0,0.27 -0.13,0.4 -0.4,0.4 H 86.85 c -0.27,0 -0.4,-0.13 -0.4,-0.4 V 30.29 c 0,-0.37 -0.11,-0.67 -0.32,-0.88 -0.21,-0.21 -0.51,-0.32 -0.88,-0.32 H 72.64 c -0.37,0 -0.67,0.11 -0.88,0.32 -0.21,0.21 -0.32,0.51 -0.32,0.88 v 31.7 l 21.63,-6.04 21.63,6.04 v -31.7 c 0,-0.37 -0.11,-0.67 -0.32,-0.88 z"
       id="path10359" />
    <path
       class="cls-1"
       d="M 115.21,62.64 93.08,56.47 70.95,62.64 V 30.29 c 0,-0.51 0.16,-0.92 0.46,-1.23 0.31,-0.31 0.72,-0.47 1.23,-0.47 h 12.61 c 0.51,0 0.92,0.16 1.23,0.47 0.31,0.31 0.47,0.72 0.47,1.23 V 50.47 H 99.2 c 0,0 0,-20.18 0,-20.18 0,-0.51 0.16,-0.93 0.47,-1.23 0.31,-0.31 0.72,-0.46 1.23,-0.46 h 12.61 c 0.51,0 0.92,0.16 1.23,0.46 0.31,0.3 0.46,0.72 0.46,1.23 V 62.64 Z M 72.64,29.59 c -0.24,0 -0.41,0.06 -0.53,0.17 -0.12,0.12 -0.17,0.29 -0.17,0.53 v 31.04 l 21.13,-5.9 0.13,0.04 21,5.86 V 30.29 c 0,-0.24 -0.06,-0.41 -0.17,-0.53 -0.11,-0.12 -0.29,-0.17 -0.52,-0.17 H 100.9 c -0.24,0 -0.41,0.06 -0.52,0.17 -0.04,0.04 -0.17,0.17 -0.17,0.53 v 20.28 c 0,0.54 -0.36,0.9 -0.9,0.9 H 86.86 c -0.55,0 -0.9,-0.35 -0.9,-0.9 V 30.29 c 0,-0.24 -0.06,-0.41 -0.17,-0.53 -0.12,-0.12 -0.29,-0.17 -0.52,-0.17 H 72.66 Z"
       id="path10361" />
  </g>
  <g
     id="g10369"
     transform="translate(-46.65,-28.59)">
    <path
       class="cls-1"
       d="m 134.64,65.77 -3.15,-7.28 c -0.04,-0.08 -0.1,-0.12 -0.17,-0.12 h -1.21 c -0.1,0 -0.14,0.05 -0.14,0.14 v 7.14 c 0,0.13 -0.04,0.24 -0.11,0.32 -0.07,0.08 -0.18,0.11 -0.32,0.11 h -4.53 c -0.13,0 -0.24,-0.04 -0.31,-0.11 -0.08,-0.08 -0.12,-0.18 -0.12,-0.32 V 46.44 c 0,-0.13 0.04,-0.24 0.12,-0.32 0.08,-0.08 0.18,-0.11 0.31,-0.11 h 8.69 c 1.3,0 2.44,0.27 3.43,0.8 0.99,0.53 1.75,1.29 2.29,2.25 0.54,0.97 0.82,2.08 0.82,3.34 0,1.26 -0.31,2.37 -0.93,3.31 -0.62,0.95 -1.48,1.64 -2.57,2.08 -0.1,0.04 -0.12,0.11 -0.09,0.2 l 3.64,7.57 c 0.04,0.12 0.06,0.18 0.06,0.2 0,0.1 -0.04,0.17 -0.12,0.23 -0.08,0.06 -0.17,0.09 -0.29,0.09 h -4.82 c -0.25,0 -0.41,-0.1 -0.49,-0.32 z m -4.67,-15 v 3.36 c 0,0.1 0.05,0.14 0.14,0.14 h 2.7 c 0.61,0 1.11,-0.17 1.49,-0.5 0.38,-0.33 0.57,-0.77 0.57,-1.31 0,-0.54 -0.19,-1 -0.57,-1.33 -0.38,-0.33 -0.88,-0.5 -1.49,-0.5 h -2.7 c -0.1,0 -0.14,0.05 -0.14,0.14 z"
       id="path10365" />
    <path
       class="cls-1"
       d="m 150.07,65.97 c -0.08,-0.08 -0.12,-0.18 -0.12,-0.32 V 46.44 c 0,-0.13 0.04,-0.24 0.12,-0.32 0.08,-0.08 0.18,-0.11 0.31,-0.11 h 4.53 c 0.13,0 0.24,0.04 0.32,0.11 0.08,0.08 0.11,0.18 0.11,0.32 v 19.21 c 0,0.13 -0.04,0.24 -0.11,0.32 -0.07,0.08 -0.18,0.11 -0.32,0.11 h -4.53 c -0.13,0 -0.24,-0.04 -0.31,-0.11 z"
       id="path10367" />
  </g>
  <path
     class="cls-1"
     d="M 14.43,21.92 C 14.35,22 14.25,22.04 14.11,22.04 H 5.54 c -0.1,0 -0.14,0.05 -0.14,0.14 v 2.7 c 0,0.1 0.05,0.14 0.14,0.14 h 5.3 c 0.13,0 0.24,0.04 0.32,0.11 0.08,0.08 0.12,0.18 0.12,0.32 v 3.73 c 0,0.13 -0.04,0.24 -0.12,0.32 -0.08,0.08 -0.18,0.12 -0.32,0.12 h -5.3 c -0.1,0 -0.14,0.05 -0.14,0.14 v 2.98 c 0,0.1 0.05,0.14 0.14,0.14 h 8.57 c 0.13,0 0.24,0.04 0.32,0.11 0.08,0.08 0.12,0.18 0.12,0.32 v 3.76 c 0,0.13 -0.04,0.24 -0.12,0.32 -0.08,0.08 -0.18,0.11 -0.32,0.11 H 0.43 C 0.3,37.5 0.19,37.46 0.12,37.39 0.04,37.31 0,37.21 0,37.07 V 17.86 C 0,17.73 0.04,17.62 0.12,17.54 0.2,17.46 0.3,17.43 0.43,17.43 h 13.68 c 0.13,0 0.24,0.04 0.32,0.11 0.08,0.08 0.12,0.18 0.12,0.32 v 3.76 c 0,0.13 -0.04,0.24 -0.12,0.32 z"
     id="path10371" />
  <g
     class="cls-2"
     id="g10375"
     transform="translate(-46.65,-28.59)">
    <path
       class="cls-1"
       d="m 93.08,55.95 21.63,6.04 v 22.66 c 0,0.37 -0.11,0.66 -0.32,0.88 -0.21,0.21 -0.51,0.32 -0.88,0.32 H 100.9 c -0.37,0 -0.66,-0.11 -0.88,-0.32 C 99.81,85.32 99.7,85.02 99.7,84.65 V 65.09 c 0,-0.27 -0.13,-0.4 -0.4,-0.4 H 86.85 c -0.27,0 -0.4,0.13 -0.4,0.4 v 19.56 c 0,0.37 -0.11,0.66 -0.32,0.88 -0.21,0.21 -0.51,0.32 -0.88,0.32 H 72.64 c -0.37,0 -0.67,-0.11 -0.88,-0.32 -0.21,-0.21 -0.32,-0.51 -0.32,-0.88 V 61.99 l 21.63,-6.04 z"
       id="path10373" />
  </g>
</svg>
